<svg xmlns="http://www.w3.org/2000/svg" viewBox="0 0 645.74 625.1"><defs><style>.cls-1{fill:#fc478e;}.cls-2{fill:#984efd;}.cls-3{fill:#4db9ca;}.cls-4{fill:#9ccc44;}.cls-5{fill:#ff7d1f;}</style></defs><g id="Capa_2" data-name="Capa 2"><g id="Capa_2-2" data-name="Capa 2"><path fill="#fc478e" d="M92.25,0H184.5A89.3,89.3,0,0,1,95.2,89.3h-3Z"/><rect fill="#984efd" x="184.5" width="92.25" height="89.3" rx="44.65"/><path fill="#4db9ca" d="M276.75,0h2.95A89.31,89.31,0,0,1,369,89.3H276.75Z"/><path fill="#9ccc44" d="M458.29,0h2.95V89.3H369A89.3,89.3,0,0,1,458.29,0Z"/><path fill="#ff7d1f" d="M461.24,0h2.95a89.3,89.3,0,0,1,89.3,89.3h-3A89.3,89.3,0,0,1,461.24,0Z"/><path fill="#4db9ca" d="M553.49,178.6H461.24a89.3,89.3,0,0,1,89.3-89.3h3Z"/><path fill="#ff7d1f" d="M461.24,178.6H369V89.3h2.94a89.3,89.3,0,0,1,89.3,89.3Z"/><path fill="#fc478e" d="M369,178.6h-2.95a89.3,89.3,0,0,1-89.3-89.3H369Z"/><path fill="#9ccc44" d="M187.45,178.6H184.5V175a85.7,85.7,0,0,1,85.7-85.7h6.55A89.3,89.3,0,0,1,187.45,178.6Z"/><path fill="#4db9ca" d="M184.5,178.6H92.25V89.3h3a89.3,89.3,0,0,1,89.3,89.3Z"/><path fill="#ff7d1f" d="M464.19,267.9h-2.95V178.6h92.25A89.3,89.3,0,0,1,464.19,267.9Z"/><path fill="#984efd" d="M461.24,267.9h-2.95A89.3,89.3,0,0,1,369,178.6h92.24Z"/><path fill="#9ccc44" d="M369,267.9H276.75a89.3,89.3,0,0,1,89.3-89.3H369Z"/><path fill="#4db9ca" d="M276.75,267.9H184.5V178.6h2.95a89.3,89.3,0,0,1,89.3,89.3Z"/><path fill="#fc478e" d="M184.5,267.9H92.25a89.3,89.3,0,0,1,89.3-89.3h2.95Z"/><path fill="#ff7d1f" d="M553.49,625.1H461.24a89.3,89.3,0,0,1,89.3-89.3h3Z"/><path fill="#fc478e" d="M461.24,625.1H369V535.8h2.94a89.3,89.3,0,0,1,89.3,89.3Z"/><rect fill="#9ccc44" x="276.75" y="535.8" width="92.25" height="89.3" rx="44.65"/><path fill="#984efd" d="M187.45,625.1H184.5V535.8h92.25A89.3,89.3,0,0,1,187.45,625.1Z"/><path fill="#4db9ca" d="M184.5,625.1h-2.95a89.3,89.3,0,0,1-89.3-89.3H184.5Z"/><path fill="#9ccc44" d="M92.25,446.5H184.5a89.3,89.3,0,0,1-89.3,89.3h-3Z"/><path fill="#984efd" d="M184.5,446.5h92.25v89.3H273.8a89.3,89.3,0,0,1-89.3-89.3Z"/><path fill="#ff7d1f" d="M276.75,446.5h2.95A89.31,89.31,0,0,1,369,535.8H276.75Z"/><path fill="#fc478e" d="M458.29,446.5h2.95v3.6a85.7,85.7,0,0,1-85.7,85.7H369A89.3,89.3,0,0,1,458.29,446.5Z"/><path fill="#4db9ca" d="M461.24,446.5h92.25v89.3h-3a89.3,89.3,0,0,1-89.3-89.3Z"/><rect fill="#ff7d1f" x="461.24" y="357.2" width="92.25" height="89.3" rx="44.65"/><path fill="#984efd" d="M461.24,357.2H369a89.3,89.3,0,0,0,89.29,89.3h2.95Z"/><path fill="#fc478e" d="M369,357.2H276.75v89.3h2.95A89.31,89.31,0,0,0,369,357.2Z"/><rect fill="#9ccc44" x="184.5" y="357.2" width="92.25" height="89.3"/><path fill="#4db9ca" d="M95.2,357.2h-3a89.3,89.3,0,0,0,89.3,89.3h2.95A89.3,89.3,0,0,0,95.2,357.2Z"/><path fill="#ff7d1f" d="M92.25,267.9H184.5v89.3h-2.95a89.3,89.3,0,0,1-89.3-89.3Z"/><path fill="#fc478e" d="M642.79,0h3V89.3H553.49A89.3,89.3,0,0,1,642.79,0Z"/><path fill="#4db9ca" d="M645.74,178.6h-3a89.3,89.3,0,0,1-89.3-89.3h92.25Z"/><rect fill="#fc478e" x="553.49" y="178.6" width="92.25" height="89.3" rx="44.65"/><path fill="#4db9ca" d="M645.74,625.1h-3a89.3,89.3,0,0,1-89.3-89.3h92.25Z"/><path fill="#9ccc44" d="M553.49,446.5h92.25a89.3,89.3,0,0,1-89.3,89.3h-3Z"/><path fill="#4db9ca" d="M645.74,357.2H553.49a89.3,89.3,0,0,0,89.3,89.3h3Z"/><path fill="#ff7d1f" d="M642.79,267.9h3v89.3H553.49A89.3,89.3,0,0,1,642.79,267.9Z"/><path fill="#fc478e" d="M461.24,267.9h6.59a85.66,85.66,0,0,1,85.66,85.66h0a3.64,3.64,0,0,1-3.63,3.64H461.24Z"/><path fill="#984efd" d="M0,0H3a89.3,89.3,0,0,1,89.3,89.3h-3A89.3,89.3,0,0,1,0,0Z"/><path fill="#4db9ca" d="M92.25,178.6H0A89.3,89.3,0,0,1,89.3,89.3h3Z"/><rect fill="#9ccc44" y="178.6" width="92.25" height="89.3"/><path fill="#ff7d1f" d="M92.25,625.1H0a89.3,89.3,0,0,1,89.3-89.3h3Z"/><path fill="#9ccc44" d="M0,446.5H92.25v89.3h-3A89.3,89.3,0,0,1,0,446.5Z"/><rect fill="#984efd" y="357.2" width="92.25" height="89.3" rx="44.65"/><path fill="#fc478e" d="M0,267.9H92.25v85.66a3.64,3.64,0,0,1-3.64,3.64h0A88.61,88.61,0,0,1,0,268.59Z"/><path fill="#fc478e" d="M461.24,357.2H369a89.3,89.3,0,0,1,89.29-89.3h2.95Z"/><path fill="#ff7d1f" d="M369.52,267.43v2.95a89.29,89.29,0,0,1-89.3,89.29h0v-2.95a89.28,89.28,0,0,1,89.3-89.29Z"/><path fill="#984efd" d="M184.48,267.24h3a89.31,89.31,0,0,1,89.3,89.3h-3a89.3,89.3,0,0,1-89.3-89.3Z"/></g></g></svg>
